<svg width="20" height="20" viewBox="0 0 20 20" fill="none" xmlns="http://www.w3.org/2000/svg">
<path d="M12.5003 3.54165C12.5003 2.64332 11.4387 2.16665 10.767 2.76332L7.02283 6.09165C6.90855 6.19346 6.76088 6.2498 6.60783 6.24998H3.54199C3.04471 6.24998 2.5678 6.44753 2.21617 6.79916C1.86454 7.15079 1.66699 7.6277 1.66699 8.12498V11.8725C1.66699 12.3698 1.86454 12.8467 2.21617 13.1983C2.5678 13.5499 3.04471 13.7475 3.54199 13.7475H6.60866C6.76171 13.7477 6.90938 13.804 7.02366 13.9058L10.7662 17.2333C11.4378 17.8308 12.5003 17.3542 12.5003 16.455V3.54165ZM13.517 7.68332C13.6342 7.56628 13.793 7.50053 13.9587 7.50053C14.1243 7.50053 14.2831 7.56628 14.4003 7.68332L15.8337 9.11665L17.267 7.68332C17.3242 7.62191 17.3932 7.57266 17.4699 7.5385C17.5465 7.50434 17.6293 7.48597 17.7132 7.48449C17.7971 7.48301 17.8805 7.49845 17.9583 7.52988C18.0361 7.56132 18.1068 7.6081 18.1662 7.66745C18.2255 7.7268 18.2723 7.7975 18.3038 7.87532C18.3352 7.95314 18.3506 8.0365 18.3492 8.12042C18.3477 8.20434 18.3293 8.2871 18.2951 8.36377C18.261 8.44043 18.2117 8.50943 18.1503 8.56665L16.717 9.99998L18.1503 11.4333C18.2117 11.4905 18.261 11.5595 18.2951 11.6362C18.3293 11.7129 18.3477 11.7956 18.3492 11.8795C18.3506 11.9635 18.3352 12.0468 18.3038 12.1246C18.2723 12.2025 18.2255 12.2732 18.1662 12.3325C18.1068 12.3919 18.0361 12.4387 17.9583 12.4701C17.8805 12.5015 17.7971 12.517 17.7132 12.5155C17.6293 12.514 17.5465 12.4956 17.4699 12.4615C17.3932 12.4273 17.3242 12.3781 17.267 12.3167L15.8337 10.885L14.4003 12.3183C14.3431 12.3797 14.2741 12.429 14.1974 12.4631C14.1208 12.4973 14.038 12.5157 13.9541 12.5171C13.8702 12.5186 13.7868 12.5032 13.709 12.4718C13.6312 12.4403 13.5605 12.3935 13.5011 12.3342C13.4418 12.2748 13.395 12.2041 13.3636 12.1263C13.3321 12.0485 13.3167 11.9651 13.3182 11.8812C13.3196 11.7973 13.338 11.7145 13.3722 11.6379C13.4063 11.5612 13.4556 11.4922 13.517 11.435L14.9503 9.99998L13.517 8.56665C13.4 8.44946 13.3342 8.29061 13.3342 8.12498C13.3342 7.95936 13.4 7.80051 13.517 7.68332Z" fill="black"/>
</svg>
