<svg width="24" height="24" viewBox="0 0 24 24" fill="none" xmlns="http://www.w3.org/2000/svg">
<path d="M20.0943 21C19.8954 21 19.7046 20.921 19.564 20.7803C19.4233 20.6397 19.3443 20.4489 19.3443 20.25V3.75C19.3443 3.55109 19.4233 3.36032 19.564 3.21967C19.7046 3.07902 19.8954 3 20.0943 3C20.2932 3 20.484 3.07902 20.6246 3.21967C20.7653 3.36032 20.8443 3.55109 20.8443 3.75V20.25C20.8457 20.3489 20.8272 20.447 20.79 20.5386C20.7528 20.6302 20.6976 20.7134 20.6276 20.7833C20.5577 20.8532 20.4745 20.9084 20.3829 20.9457C20.2913 20.9829 20.1932 21.0013 20.0943 21ZM16.6943 11.411C16.7033 11.7595 16.6312 12.1053 16.4837 12.4211C16.3362 12.737 16.1173 13.0142 15.8443 13.231L6.73432 20.321C6.40832 20.568 6.02132 20.721 5.61432 20.761H5.38432C5.0381 20.7696 4.69497 20.6941 4.38432 20.541C4.01449 20.3605 3.70269 20.0798 3.48432 19.731C3.26692 19.3833 3.1525 18.9811 3.15432 18.571V5.421C3.15637 5.02676 3.26337 4.64018 3.46432 4.301C3.67234 3.9642 3.96554 3.68825 4.31432 3.501C4.66173 3.31321 5.05363 3.22332 5.44816 3.24093C5.84269 3.25855 6.22502 3.383 6.55432 3.601L15.6743 9.681C15.9643 9.872 16.2043 10.129 16.3743 10.431C16.5538 10.7292 16.6632 11.0643 16.6943 11.411Z" fill="black"/>
</svg>
