<svg width="52" height="52" viewBox="0 0 52 52" fill="none" xmlns="http://www.w3.org/2000/svg">
<circle cx="26" cy="26" r="26" fill="black"/>
<path d="M34.0298 25.9999C34.0302 26.1947 33.9803 26.3862 33.8848 26.5559C33.7893 26.7257 33.6516 26.8678 33.4849 26.9685L23.1556 33.2873C22.9815 33.394 22.782 33.4522 22.5779 33.456C22.3737 33.4598 22.1722 33.409 21.9942 33.3089C21.818 33.2103 21.6711 33.0666 21.5688 32.8924C21.4665 32.7183 21.4124 32.5201 21.4121 32.3181V19.6818C21.4124 19.4798 21.4665 19.2816 21.5688 19.1075C21.6711 18.9333 21.818 18.7896 21.9942 18.691C22.1722 18.5909 22.3737 18.5401 22.5779 18.5439C22.782 18.5477 22.9815 18.6059 23.1556 18.7125L33.4849 25.0314C33.6516 25.1321 33.7893 25.2742 33.8848 25.4439C33.9803 25.6137 34.0302 25.8052 34.0298 25.9999Z" fill="white"/>
</svg>
