<svg width="24" height="24" viewBox="0 0 24 24" fill="none" xmlns="http://www.w3.org/2000/svg">
<path d="M3.90568 21C4.10459 21 4.29536 20.921 4.43601 20.7803C4.57666 20.6397 4.65568 20.4489 4.65568 20.25V3.75C4.65568 3.55109 4.57666 3.36032 4.43601 3.21967C4.29536 3.07902 4.10459 3 3.90568 3C3.70677 3 3.516 3.07902 3.37535 3.21967C3.2347 3.36032 3.15568 3.55109 3.15568 3.75V20.25C3.15434 20.3489 3.17282 20.447 3.21003 20.5386C3.24725 20.6302 3.30244 20.7134 3.37235 20.7833C3.44227 20.8532 3.52548 20.9084 3.61708 20.9457C3.70869 20.9829 3.80682 21.0013 3.90568 21ZM7.30568 11.411C7.29669 11.7595 7.3688 12.1053 7.51631 12.4211C7.66382 12.737 7.8827 13.0142 8.15568 13.231L17.2657 20.321C17.5917 20.568 17.9787 20.721 18.3857 20.761H18.6157C18.9619 20.7696 19.305 20.6941 19.6157 20.541C19.9855 20.3605 20.2973 20.0798 20.5157 19.731C20.7331 19.3833 20.8475 18.9811 20.8457 18.571V5.421C20.8436 5.02676 20.7366 4.64018 20.5357 4.301C20.3277 3.9642 20.0345 3.68825 19.6857 3.501C19.3383 3.31321 18.9464 3.22332 18.5518 3.24093C18.1573 3.25855 17.775 3.383 17.4457 3.601L8.32568 9.681C8.03568 9.872 7.79568 10.129 7.62568 10.431C7.44624 10.7292 7.33682 11.0643 7.30568 11.411Z" fill="black"/>
</svg>
