<svg width="20" height="20" viewBox="0 0 20 20" fill="none" xmlns="http://www.w3.org/2000/svg">
<path d="M9.28571 17.6611C9.85036 17.6611 10.2575 17.2457 10.2575 16.6893V3.44178C10.2575 2.88535 9.85036 2.42035 9.26929 2.42035C8.86214 2.42035 8.58821 2.60285 8.14786 3.01821L4.485 6.48178C4.42447 6.53189 4.34785 6.55841 4.26929 6.55642H1.80214C0.631429 6.55642 0 7.19571 0 8.44178V11.6643C0 12.9103 0.631071 13.55 1.8025 13.55H4.26929C4.35214 13.55 4.42679 13.575 4.485 13.6246L8.14786 17.1211C8.54643 17.495 8.87857 17.6611 9.28571 17.6611ZM17.3175 15.9668C17.6411 16.1825 18.04 16.0996 18.2725 15.7675C19.3689 14.2389 20 12.2043 20 10.0782C20 7.94356 19.3771 5.90856 18.2725 4.38035C18.0318 4.05642 17.6411 3.97321 17.3175 4.18928C17.0018 4.40535 16.9518 4.81213 17.2011 5.16928C18.1064 6.49821 18.6629 8.24249 18.6629 10.0778C18.6629 11.9136 18.1229 13.6743 17.1925 14.9868C16.9604 15.3439 17.0018 15.7511 17.3175 15.9668ZM14.0032 13.7239C14.2857 13.9236 14.6925 13.8571 14.9336 13.5332C15.5814 12.6611 15.9718 11.3818 15.9718 10.0778C15.9718 8.77428 15.5732 7.50321 14.9336 6.61463C14.6929 6.29071 14.2943 6.22428 14.0032 6.42356C13.6379 6.66428 13.5961 7.08785 13.8621 7.45321C14.3439 8.10106 14.6346 9.08963 14.6346 10.0782C14.6346 11.0664 14.3275 12.0546 13.8539 12.7107C13.6046 13.0678 13.6461 13.475 14.0032 13.7243" fill="black"/>
</svg>
